<?xml version="1.0" encoding="utf-8"?>
<!-- Generator: Adobe Illustrator 22.1.0, SVG Export Plug-In . SVG Version: 6.00 Build 0)  -->
<svg version="1.1" id="Layer_1" xmlns="http://www.w3.org/2000/svg" xmlns:xlink="http://www.w3.org/1999/xlink" x="0px" y="0px"
	 width="500px" height="67.8px" viewBox="0 0 500 67.8" style="enable-background:new 0 0 500 67.8;" xml:space="preserve">
<style type="text/css">
	.st0{fill:#6AC64B;}
	.st1{fill:#253746;}
</style>
<g>
	<g>
		<path class="st0" d="M14.7,7.4c0,2.1-0.7,3.8-2.1,5.2c-1.4,1.4-3.2,2.2-5.2,2.2s-3.8-0.7-5.2-2.2C0.7,11.2,0,9.5,0,7.4
			c0-2.1,0.7-3.8,2.1-5.2C3.6,0.7,5.3,0,7.3,0s3.8,0.7,5.2,2.2C14,3.6,14.7,5.3,14.7,7.4z M1.3,67.1V19.5h12.1v47.6H1.3z"/>
		<path class="st0" d="M28.4,60.9C24.2,56.3,22,50.4,22,43.2c0-7.2,2.1-13,6.4-17.6c4.2-4.6,9.6-6.8,16.2-6.8c6.5,0,11.5,2.7,15,8.1
			V3.5h12v63.6h-12v-8c-3.6,5.8-8.6,8.7-15,8.7C38,67.8,32.7,65.5,28.4,60.9z M55.7,53.6c2.5-2.5,3.8-5.9,3.8-10.3
			c0-4.4-1.3-7.8-3.8-10.3c-2.5-2.5-5.5-3.7-8.9-3.7c-3.4,0-6.3,1.2-8.8,3.7c-2.5,2.5-3.7,5.9-3.7,10.2c0,4.4,1.3,7.8,3.8,10.3
			c2.5,2.5,5.5,3.8,8.8,3.8C50.3,57.3,53.2,56.1,55.7,53.6z"/>
		<path class="st0" d="M102.8,67.8c-6.9,0-12.6-2.3-16.9-6.7c-4.4-4.5-6.5-10.4-6.5-17.8s2.2-13.3,6.6-17.7c4.4-4.4,10.1-6.7,17-6.7
			c7,0,12.7,2.2,17.1,6.5c4.5,4.3,6.7,10.1,6.7,17.3c0,1.7-0.1,3.2-0.3,4.6H91.7c0.3,3.1,1.4,5.6,3.4,7.5c2,1.9,4.6,2.8,7.6,2.8
			c4.2,0,7.3-1.7,9.3-5.2h13.1c-1.4,4.5-4,8.2-8,11.1C113.2,66.4,108.4,67.8,102.8,67.8z M110.8,31.9C108.6,30,106,29,103,29
			c-3,0-5.6,0.9-7.6,2.8c-2,1.9-3.3,4.4-3.6,7.6h22.5C114.1,36.3,112.9,33.8,110.8,31.9z"/>
		<path class="st0" d="M139.6,60.9c-4.3-4.6-6.4-10.5-6.4-17.7c0-7.2,2.1-13,6.4-17.6c4.2-4.6,9.6-6.8,16.2-6.8s11.5,2.7,15,8.1
			v-7.4h12v47.6h-12v-8c-3.6,5.8-8.6,8.7-15,8.7C149.2,67.8,143.9,65.5,139.6,60.9z M166.9,53.6c2.5-2.5,3.8-5.9,3.8-10.3
			c0-4.4-1.3-7.8-3.8-10.3c-2.5-2.5-5.5-3.7-8.8-3.7c-3.4,0-6.3,1.2-8.8,3.7c-2.5,2.5-3.7,5.9-3.7,10.2c0,4.4,1.3,7.8,3.8,10.3
			c2.5,2.5,5.5,3.8,8.8,3.8S164.4,56.1,166.9,53.6z"/>
		<path class="st0" d="M193.5,67.1V3.5h12.1v63.6H193.5z"/>
	</g>
	<g>
		<path class="st1" d="M433.6,60.9c-4.3-4.6-6.4-10.5-6.4-17.7c0-7.2,2.1-13,6.4-17.6c4.2-4.6,9.6-6.8,16.2-6.8s11.5,2.7,15,8.1
			v-7.4h12v47.6h-12v-8c-3.6,5.8-8.6,8.7-15,8.7C443.2,67.8,437.9,65.5,433.6,60.9z M460.9,53.6c2.5-2.5,3.8-5.9,3.8-10.3
			c0-4.4-1.3-7.8-3.8-10.3c-2.5-2.5-5.5-3.7-8.8-3.7c-3.4,0-6.3,1.2-8.8,3.7c-2.5,2.5-3.7,5.9-3.7,10.2c0,4.4,1.3,7.8,3.8,10.3
			c2.5,2.5,5.5,3.8,8.8,3.8C455.4,57.3,458.4,56.1,460.9,53.6z"/>
		<path class="st1" d="M487.9,67.1V3.5H500v63.6H487.9z"/>
		<path class="st1" d="M233.7,60.9c-4.3-4.6-6.4-10.5-6.4-17.7c0-7.2,2.1-13,6.4-17.6c4.2-4.6,9.6-6.8,16.2-6.8
			c6.5,0,11.5,2.7,15,8.1V3.5h12v63.6h-12v-8c-3.6,5.8-8.6,8.7-15,8.7C243.3,67.8,238,65.5,233.7,60.9z M261,53.6
			c2.5-2.5,3.8-5.9,3.8-10.3c0-4.4-1.3-7.8-3.8-10.3c-2.5-2.5-5.5-3.7-8.9-3.7c-3.4,0-6.3,1.2-8.8,3.7c-2.5,2.5-3.7,5.9-3.7,10.2
			c0,4.4,1.3,7.8,3.8,10.3c2.5,2.5,5.5,3.8,8.8,3.8C255.6,57.3,258.5,56.1,261,53.6z"/>
		<path class="st1" d="M308.1,67.8c-6.9,0-12.6-2.3-16.9-6.7c-4.4-4.5-6.5-10.4-6.5-17.8s2.2-13.3,6.6-17.7c4.4-4.4,10.1-6.7,17-6.7
			s12.7,2.2,17.1,6.5c4.5,4.3,6.7,10.1,6.7,17.3c0,1.7-0.1,3.2-0.3,4.6H297c0.3,3.1,1.4,5.6,3.4,7.5c2,1.9,4.6,2.8,7.6,2.8
			c4.2,0,7.3-1.7,9.3-5.2h13.1c-1.4,4.5-4,8.2-8,11.1C318.5,66.4,313.7,67.8,308.1,67.8z M316.1,31.9c-2.2-1.9-4.7-2.8-7.8-2.8
			c-3,0-5.6,0.9-7.6,2.8c-2,1.9-3.3,4.4-3.6,7.6h22.5C319.4,36.3,318.2,33.8,316.1,31.9z"/>
		<path class="st1" d="M381.9,23.9c3.3,3.6,4.9,8.7,4.9,15.3v27.9h-12.1V40.6c0-3.8-1-6.8-2.9-8.9c-2-2.1-4.6-3.2-8-3.2
			c-3.5,0-6.2,1.1-8.3,3.4c-2.1,2.2-3.1,5.5-3.1,9.7v25.4h-12.2V19.2h12.2v9.6c1.3-3.2,3.4-5.8,6.3-7.6c2.9-1.8,6.3-2.7,10.1-2.7
			C374.2,18.5,378.6,20.3,381.9,23.9z"/>
		<path class="st1" d="M422.9,56.6v10.5h-6.4c-5.4,0-9.5-1.3-12.3-3.9c-2.9-2.6-4.3-6.9-4.3-13V29.5h-6.7V19.2h6.7V3.5h12.2v15.7
			h10.7v10.3h-10.7v20.9c0,2.3,0.5,3.9,1.4,4.8c0.9,0.9,2.5,1.4,4.7,1.4H422.9z"/>
	</g>
</g>
</svg>
